<svg xmlns="http://www.w3.org/2000/svg" width="1024" height="1024">
  <path fill="#3B4C58" d="M448.233 357.92c-7.96-19.302-5.558-27.487 2.305-46.466q7.776-18.919 17.134-37.108 9.357-18.189 20.229-35.516c30.628-47.934 72.472-90.87 117.393-125.656 17.691-13.7 36.391-27.82 57.25-36.3 9.849-4.003 20.411-5.786 30.48-1.471 21.19 9.08 45.523 50.224 55.786 70.48q7.708 15.58 13.91 31.818c43.949 112.794 34.201 223.35.356 337.053-5.477 18.4-12.702 36.214-18.667 54.436 26.007 24.512 44.319 61.528 45.513 97.45 1.383 41.625-14.075 86.043-34.885 121.588-5.453 9.315-11.765 19.084-19.229 26.908-4.688 4.914-9.813 9.006-16.908 9.27-5.507.205-9.8-2.072-13.676-5.815-6.825-6.593-8.082-23.952-10.161-32.988q-2.374-9.992-5.679-19.715c-5.318-15.281-12.332-29.402-22.792-41.855-3.463 5.988-7.935 10.033-14.79 11.824-4.267 1.115-8.961 1.554-13.362 1.731-2.714 10.421-8.045 26.662-17.805 32.614-5.565 3.394-12.558 3.809-18.907 3.909.795 6.708 2.113 13.218 2.192 20.012.261 22.5-7.942 48.358-22.02 66.03-3.723 4.674-8.608 9.316-14.857 9.844-2.594.218-5.216-.278-7.223-2.022-2.842-2.469-3.8-6.371-4.609-9.882-9.023 20.104-43.996 68.252-65.199 76.407-3.62 1.392-7.652 1.785-11.238.078-6.677-3.179-9.769-12.328-11.888-18.874-7.9-24.412-12.896-61.16-10.213-86.482-3.024 3.854-7.613 8.019-12.716 8.503-2.382.226-4.52-.645-6.312-2.187-6.198-5.333-7.786-15.288-8.177-23.032-1.133-22.423 4.776-51.039 20.635-67.907a22 22 0 0 1 1.6-1.515c-8.242-6.196-12.423-11.111-13.926-21.538-1.052-7.296-1.119-14.74.252-21.994-6.555-2.061-11.726-4.645-15.051-11.035-.872-1.676-1.536-3.512-2.263-5.254-20.136 12.726-39.192 26.35-55.343 44.032-8.197 8.974-15.556 21.763-25.213 28.866-4.494 3.306-10.084 5.279-15.653 3.94-4.71-1.133-8.407-4.268-10.753-8.444-12.115-21.567-2.785-85.183 4.299-108.681 6.862-22.758 18.886-47.762 36.664-63.901 5.189-4.711 11.24-8.581 17.401-11.892q4.138-2.239 8.54-3.9c-3.757-3.015-7.875-6.125-8.51-11.268-1.067-8.631 3.07-22.689 8.542-29.489 1.999-2.485 4.146-3.738 7.337-3.98 6.801-.515 10.923 4.09 17.404-.517 1.571-4.197-.261-11.728-.333-16.362q.857-1.811 1.991-3.462c1.897-2.787 4.255-4.712 7.59-5.383l.861-.056c7.718-.537 22.617-5.634 28.911.067 3.994 3.618 6.219 13.281 9.876 14.167a13 13 0 0 1-.826 1.919c5.54.13 13.577-13.549 24.176-2.766 4.536 4.614 7.397 9.077 12.686 13.248l.501-.244.343-1.271.302-.126 1.086 1.212c-.408-1.511-1.449-3.662-1.544-5.127l.255.44c.917 1.546 1.918 2.781 3.152 4.082 2.178-1.243 4.36-2.174 5.181-4.751.85-2.67-2.562-8.411-2.715-12.761-.237-6.769 1.33-12.951 2.973-19.447 4.068-2.596 6.848-5.577 11.567-7.08.457-.146.91-.304 1.365-.454-2.67-.792-13.876-6.096-14.783-6.035l2.273 1.734-.216.464c-2.261-.424-4.547-3.645-6.031-5.402-6.024.593-12.166 1.432-18.218.872-1.463 4.252-2.889 7.739-7.181 9.877-4.133 2.06-9.361 1.605-13.586.071-5-1.816-17.237-10.151-19.118-15.022-.701-1.818-.513-3.671.401-5.38.955-1.784 3.5-4.599 3.009-6.707-.564-2.42-5.158-7.396-6.956-9.414-4.394.254-10.934.559-14.127-3.182-2.779-3.258-4.431-24.561-3.477-28.93.581-2.663 1.915-4.964 4.272-6.414 2.964-1.823 6.533-1.693 9.871-1.487 1.827-1.343 3.488-3.206 4.197-5.393-2.304-5.8-4.505-11.421-5.849-17.526-.041-.185-.096-.366-.144-.55 5.107-6.634 13.356-14.114 21.068-17.53"/>
  <path fill="#85A5B6" d="M405.097 501.667q.857-1.811 1.991-3.462c1.897-2.787 4.255-4.712 7.59-5.383-4.102 3.359-6.596 6.636-7.192 12.102-.381 3.495-.178 7.533.979 10.868l1.93-.116-.142.97c-1.595.52-3.238.864-4.823 1.383 1.571-4.197-.261-11.728-.333-16.362"/>
  <path fill="#FCF1D2" d="M467.113 360.803c-2.384-4.634-4.593-9.697-6.008-14.719-.626-2.224-1.061-4.5-.771-6.813.6-4.8 2.917-9.818 4.586-14.35 6.599-17.92 14.055-35.183 23.332-51.891q6.952-12.631 14.737-24.767t16.368-23.72c2.633-3.536 5.284-7.703 8.604-10.609 1.796-1.573 3.835-2.27 6.108-2.901 10.525-2.922 22.127-4.062 33.004-4.84 54.88-3.929 113.89 8.852 161.925 35.818 9.447 4.993 38.085 21.724 40.925 31.599 3.54 12.307 4.252 36.963 4.699 50.281 3.443 102.634-33.785 220.007-77.95 311.659-9.749 20.23-20.69 40.087-31.92 59.528-4.104 7.106-11.05 21.506-19.381 23.627-10.04 2.556-23.011-.333-33.236-1.602-9.523-.721-19.135-2.592-28.577-4.058-40.596-6.306-82.011-14.119-121.241-26.473-8.734-2.751-17.908-5.414-26.07-9.614-1.704-4.843-2.002-10.723-2.705-15.828-1.902-13.821-3.746-27.674-4.2-41.631 7.945 1.389 15.867.879 23.531-1.685 6.627-2.218 11.203-5.387 14.356-11.707 16.686 6.027 34.933 9.433 52.3 12.867 15.956 3.155 32.032 6.35 48.166 8.455 14.57 1.902 29.044 1.025 40.957-8.365 5.42-4.272 9.479-9.644 11.998-16.075 2.702-6.897 3.807-14.552 5.389-21.774l7.764-35.2q7.502-32.938 14.549-65.977c2.578-11.963 5.974-24.925 7.323-36.996.955-8.547-.614-16.911-6.308-23.662-2.806-3.327-6.333-5.917-10.434-7.388-11.82-4.239-35.276-6.341-48.309-8.273-15.229-2.258-30.525-5.397-45.834-6.945-1.847-4.944-4.025-12.322-8.882-15.119-4.355-2.506-9.147-.533-13.539.758-3.462-2.605-6.177-5.41-8.575-9.018.894-3.392 3.216-9.189 1.752-12.437-2.301-5.104-11.338-8.234-16.25-9.973-4.109-1.454-12.227-4.524-16.289-2.07-3.65 2.204-5.199 9.851-6.411 13.706q-4.767-.774-9.483-1.818"/>
  <path fill="#EFD9AC" d="M728.998 242.011c9.447 4.993 38.085 21.724 40.925 31.599 3.54 12.307 4.252 36.963 4.699 50.281 3.443 102.634-33.785 220.007-77.95 311.659-9.749 20.23-20.69 40.087-31.92 59.528-4.104 7.106-11.05 21.506-19.381 23.627-10.04 2.556-23.011-.333-33.236-1.602 1.006-5.076 9.969-19.668 12.832-25.249q16.173-30.846 31.001-62.36c49.934-108.543 87.573-234.119 76.888-354.63-.976-11.008-1.98-21.955-3.858-32.853"/>
  <path fill="#3B4C58" d="M592.462 241.25q1.676-.136 3.357-.19t3.363-.024q1.682.029 3.36.141t3.349.305 3.33.47q1.659.275 3.302.632t3.268.794 3.225.954q1.601.516 3.174 1.111 1.573.594 3.116 1.265 1.542.671 3.049 1.417 1.508.745 2.977 1.564t2.896 1.71q1.427.89 2.808 1.849 1.382.959 2.715 1.985t2.614 2.116 2.506 2.242q1.226 1.151 2.394 2.362 1.167 1.21 2.274 2.477t2.15 2.585q1.044 1.319 2.021 2.688t1.886 2.784 1.747 2.874 1.604 2.955q.766 1.498 1.457 3.031t1.306 3.099 1.152 3.159.996 3.212.837 3.257.676 3.294.514 3.323.349 3.345.185 3.358.02 3.362-.146 3.36-.31 3.348-.474 3.329-.637 3.302-.799 3.267-.958 3.223q-.519 1.6-1.115 3.173-.597 1.572-1.27 3.113-.673 1.542-1.421 3.048t-1.569 2.974-1.713 2.894-1.854 2.806-1.988 2.712q-1.028 1.331-2.12 2.61t-2.245 2.504-2.366 2.39-2.48 2.271q-1.268 1.105-2.588 2.146-1.321 1.042-2.691 2.017t-2.787 1.882-2.876 1.743-2.957 1.6q-1.499.763-3.033 1.452-1.535.689-3.101 1.302t-3.161 1.148-3.213.992-3.258.832-3.295.671-3.324.509-3.345.345q-1.674.131-3.352.18t-3.357.016-3.353-.15-3.342-.313q-1.667-.198-3.323-.477t-3.295-.639-3.26-.8-3.217-.959q-1.597-.518-3.166-1.115-1.57-.596-3.108-1.269t-3.041-1.42-2.969-1.567-2.888-1.711-2.8-1.851-2.707-1.986-2.606-2.116-2.499-2.241-2.386-2.361-2.267-2.475-2.144-2.583-2.014-2.685-1.88-2.781-1.742-2.87-1.599-2.951-1.452-3.027-1.302-3.094-1.149-3.154-.993-3.206q-.457-1.616-.834-3.252t-.674-3.288-.512-3.317-.349-3.339-.185-3.352-.02-3.356.145-3.354q.113-1.675.308-3.342t.472-3.324q.277-1.656.635-3.296.357-1.64.795-3.261t.954-3.218q.517-1.598 1.111-3.168t1.265-3.109 1.416-3.044 1.563-2.97q.818-1.467 1.707-2.891t1.846-2.803 1.982-2.709 2.112-2.609q1.089-1.279 2.238-2.502 1.15-1.224 2.358-2.39 1.208-1.165 2.472-2.271 1.263-1.105 2.58-2.147 1.316-1.042 2.682-2.018t2.778-1.884 2.867-1.745 2.95-1.603q1.494-.766 3.024-1.457t3.092-1.306q1.562-.616 3.152-1.154t3.206-.997q1.614-.459 3.25-.839t3.287-.679 3.317-.516q1.665-.218 3.338-.354"/>
  <path fill="#9BCAD5" d="M596.298 258.162q1.264-.04 2.529-.018t2.526.106 2.519.23q1.256.146 2.504.354t2.483.477q1.236.268 2.457.598t2.425.718q1.203.389 2.386.836 1.183.448 2.343.953t2.293 1.066T623 264.66t2.177 1.287 2.112 1.392 2.04 1.494 1.964 1.593q.962.821 1.883 1.687.922.867 1.799 1.778t1.709 1.864q.831.954 1.615 1.946.783.993 1.517 2.023t1.416 2.095 1.312 2.163 1.203 2.224q.575 1.126 1.093 2.28t.979 2.332.864 2.376.746 2.417q.343 1.217.626 2.45.283 1.232.505 2.478.221 1.245.382 2.499.16 1.255.259 2.516t.135 2.525.011 2.529-.114 2.526q-.087 1.262-.237 2.518t-.361 2.503-.484 2.482-.605 2.455-.725 2.423q-.393 1.202-.843 2.384-.451 1.182-.96 2.34t-1.073 2.289-1.185 2.235q-.62 1.102-1.293 2.173t-1.398 2.107-1.5 2.036-1.599 1.959-1.692 1.879q-.87.918-1.783 1.793-.914.875-1.87 1.703-.955.829-1.95 1.61t-2.028 1.511-2.099 1.41-2.166 1.306-2.227 1.197q-1.129.571-2.284 1.086t-2.334.973-2.379.856-2.419.739q-1.218.339-2.452.619t-2.479.497q-1.246.219-2.501.376-1.255.156-2.516.251t-2.526.128q-1.26.033-2.519.004t-2.517-.12-2.508-.243-2.493-.365-2.472-.487-2.445-.608-2.412-.726q-1.198-.393-2.374-.844t-2.33-.959-2.28-1.072-2.225-1.183-2.164-1.29q-1.067-.671-2.099-1.394t-2.027-1.496-1.952-1.593-1.872-1.687-1.787-1.776-1.697-1.862q-.826-.951-1.604-1.942t-1.508-2.019-1.406-2.09q-.678-1.063-1.303-2.157t-1.195-2.218-1.086-2.274q-.514-1.15-.972-2.324t-.858-2.369-.74-2.408-.622-2.442-.501-2.469-.38-2.491-.258-2.506-.134-2.516-.011-2.519q.025-1.26.112-2.518.088-1.257.236-2.508.149-1.251.358-2.494.21-1.242.48-2.473t.6-2.447.72-2.415q.389-1.198.837-2.376t.952-2.333 1.066-2.283 1.176-2.228 1.284-2.168q.668-1.068 1.388-2.102.72-1.035 1.49-2.032.769-.998 1.587-1.957t1.681-1.876q.864-.918 1.772-1.792.907-.874 1.856-1.703t1.938-1.61 2.015-1.513 2.086-1.413q1.06-.68 2.153-1.309t2.214-1.201q1.122-.574 2.271-1.092t2.321-.979 2.367-.865 2.406-.747q1.212-.345 2.44-.629t2.467-.509q1.24-.224 2.49-.387 1.249-.163 2.505-.264t2.516-.142"/>
  <path fill="#C8DFE1" d="M588.724 275.01c1.006.051 2.057.171 3.035.407 2.017.487 3.847 1.462 4.852 3.339 1.423 2.657.904 6.122-.11 8.823-1.148 3.06-17.127 25.777-20.109 28.905-2.04 2.14-4.212 3.595-6.896 4.818-.809-.015-1.694-.03-2.485-.247-2.114-.578-4.48-2.014-5.369-4.101-1.34-3.146.002-7.241 1.188-10.25 3.84-9.743 16.37-27.529 25.894-31.694"/>
  <path fill="#E67B3D" d="M544.304 194.158q.123-.181.249-.361c5.942-8.286 13.785-15.699 20.975-22.898 26.688-26.722 55.9-51.559 88.562-70.725 7.487-4.393 15.757-9.491 24.444-10.865 5.046-.797 8.904 2.243 12.777 4.996 28.609 24.707 51.152 76.225 62.639 111.765 4.338 13.424 7.332 27.376 11.857 40.675-11.046-9.749-24.679-17.782-37.79-24.396l-2.764-1.326c-47.167-22.394-99.883-35.052-152.278-31.182-9.351.69-19.802 1.162-28.671 4.317"/>
  <path fill="#CB6632" d="M691.311 94.305c28.609 24.707 51.152 76.225 62.639 111.765 4.338 13.424 7.332 27.376 11.857 40.675-11.046-9.749-24.679-17.782-37.79-24.396 1.589-4.472-1.712-13.583-2.721-18.344-3.606-17.018-7.034-33.496-12.467-50.074q-3.786-11.605-8.31-22.942c-3.844-9.667-12.683-27.003-13.208-36.684"/>
  <path fill="#ff7500" d="M467.971 748.417c7.743 3.388 15.862 5.787 23.934 8.241 22.098 5.915 44.538 11.397 67.295 14.091 8.448 1.561 17.489 1.931 26.063 2.366.547 5.276 1.64 10.483 2.031 15.783 1.568 21.248-4.019 46.389-18.163 62.84-.105-.355-.203-.712-.313-1.065-2.896-9.332.973-16.992.871-26.198-.026-2.303-.442-4.789-2.282-6.348-1.096-.928-2.788-1.2-4.175-1.077-2.342.208-4.08 1.387-5.421 3.27-5.046 7.085-7.905 16.534-11.891 24.364q-6.458 12.601-14.159 24.483t-16.567 22.922c-4.933 6.072-20.679 24.949-28.295 25.737-.892-.234-1.452-.409-2.142-1.064-2.322-2.205-3.497-8.324-4.414-11.413-7.705-25.975-9.031-55.433-7.741-82.35.276-5.738 1.157-11.434 1.477-17.161.161-2.899.191-6.256-1.944-8.491-1.16-1.214-2.755-1.994-4.457-1.92-6.254.272-14.792 18.903-19.735 24.086l-.52.542c-.38-1.541-.747-3.091-.976-4.662-3.657-25.124 7.033-47.267 21.524-66.976"/>
  <path fill="#feca3a" d="M491.905 756.658c22.098 5.915 44.538 11.397 67.295 14.091-1.04 5.434-1.584 10.938-2.951 16.312-3.636 14.302-12.237 28.161-21.336 39.612-5.266 6.627-24.573 29.363-32.175 30.238-.904-.198-1.462-.458-2.107-1.114-2.991-3.04-4.34-8.62-5.61-12.613-6.015-18.9-10.56-42.324-9.997-62.254.191-6.776 1.662-19.325 6.881-24.272"/>
  <path fill="#E67B3D" d="M737.422 586.801c5.223 4.789 9.382 10.724 13.431 16.502 20.808 30.834 25.71 62.826 18.668 98.895-6.069 31.083-18.924 62.708-36.475 89.041-3.132 4.699-6.85 10.784-11.526 14.05-.694.485-1.316.709-2.124.922-1.306-.302-1.749-.595-2.445-1.781-3.259-5.559-4.423-20.107-6.247-27.124-5.338-20.538-13.546-39.056-25.072-56.852-3.103-4.396-6.367-8.617-9.714-12.828 9.674-15.513 19.314-31.068 27.75-47.304 12.459-23.982 22.844-48.823 33.754-73.521"/>
  <path fill="#CB6632" d="M737.422 586.801c5.223 4.789 9.382 10.724 13.431 16.502-.422.414-.966.732-1.267 1.241-.745 1.258-.749 3.754-1.261 5.22q-2.265 6.349-5.213 12.411c-6.294 12.764-12.843 25.662-19.703 38.13-4.644 8.44-33.415 57.214-37.777 60.149-3.103-4.396-6.367-8.617-9.714-12.828 9.674-15.513 19.314-31.068 27.75-47.304 12.459-23.982 22.844-48.823 33.754-73.521"/>
  <path fill="#E67B3D" d="M380.93 580.947c.723 8.28 5.841 14.91 11.266 20.875 5.972 6.568 11.646 10.372 20.788 10.807-.076 17.498.4 36.835 5.066 53.806-27.089 16.73-52.16 33.593-72.117 58.843-3.072 4.337-11.023 15.911-16.164 17.283-1.274-.538-1.852-.852-2.552-2.082-2.159-3.791-2.216-9.967-2.44-14.232-1.252-23.751 1.388-48.826 7.764-71.764 7.84-28.202 21.942-58.629 48.389-73.536"/>
  <path fill="#FCC244" d="M488.687 361.855c4.932.559 9.685 2.097 14.305 3.844-1.036 4.497-1.675 9.045-2.183 13.627 1.845 2.167 4.233 3.908 6.272 5.904 3.229 3.16 5.902 6.602 8.597 10.21 3.744-.967 7.516-1.772 11.298-2.575 3.425 5.099 4.928 10.31 6.181 16.259-4.48 2.119-9.544 3.316-14.347 4.472-1.255 8.107-3.043 14.061-6.752 21.432 3.202 5.243 6.691 9.318 11.03 13.669-2.946 1.919-14.414 11.186-16.625 11.207-3.992-1.362-7.09-6.869-10.051-9.868-9.037 2.763-16.59 4.002-26.044 3.952l-5.678 10.41c-1.035 1.088-1.55 2.077-3.178 2.143-4.039.163-11.295-6.753-14.341-9.316 2.283-3.709 5.018-7.189 7.428-10.83-5.589-6.27-10.326-11.728-13.614-19.561-4.606.171-9.256 1.027-13.868 1.403-.518-5.613-.783-11.259-1.131-16.886 4.36-1.537 9.015-2.326 13.532-3.286 2.609-6.63 4.518-13.127 7.664-19.6-2.639-3.117-5.415-6.132-8.139-9.175 2.861-3.136 5.953-6.072 8.949-9.078 1.616-1.62 2.712-2.845 5.152-2.853 3.707 1.29 7.096 7.25 9.559 10.327 6.82-3.227 13.81-3.513 21.239-3.701 1.478-4.097 3.014-8.133 4.745-12.13"/>
  <path fill="#3B4C58" d="M475.378 391.174q.571-.085 1.145-.141.574-.057 1.15-.085t1.153-.028q.576.001 1.152.03t1.15.086 1.145.142q.57.086 1.136.199.565.114 1.124.255t1.111.31 1.094.364q.543.196 1.075.418t1.053.471q.521.248 1.028.522.508.273 1.002.572.493.298.972.62.478.323.94.668t.906.714.869.757.832.799q.405.41.79.839.386.43.749.878t.704.913.658.947.611.978.562 1.007.511 1.034.46 1.057q.217.535.407 1.079.19.545.354 1.098t.298 1.114q.136.561.244 1.127.107.567.187 1.138t.131 1.146q.051.574.074 1.15.023.577.018 1.153t-.039 1.153-.097 1.149q-.062.574-.153 1.143-.09.57-.209 1.134-.118.565-.264 1.123t-.32 1.108-.374 1.09q-.201.541-.428 1.072-.227.53-.48 1.048-.252.519-.53 1.024-.279.505-.581.996-.303.491-.63.966-.326.476-.676.935-.349.458-.721.899t-.765.863-.807.824q-.413.402-.846.784-.433.381-.884.74-.451.36-.92.696-.468.337-.952.65t-.984.602-1.012.553-1.038.502-1.061.451-1.083.397-1.101.344q-.554.158-1.116.288-.562.131-1.13.234-.567.102-1.139.177-.565.074-1.134.12-.568.046-1.138.064t-1.14.009q-.571-.01-1.14-.047t-1.135-.102-1.129-.158-1.121-.213-1.108-.267-1.094-.321-1.078-.373-1.057-.426-1.036-.477-1.011-.527-.984-.576-.955-.623-.924-.669q-.453-.345-.889-.713-.436-.367-.854-.755-.418-.389-.816-.797t-.776-.835-.735-.872-.691-.907-.646-.94-.599-.97-.551-.998-.502-1.024-.451-1.047-.4-1.067q-.187-.539-.347-1.087-.161-.547-.294-1.101-.134-.555-.24-1.115t-.185-1.125-.13-1.133-.074-1.138-.019-1.14.036-1.139q.033-.57.093-1.137t.147-1.13q.088-.564.203-1.122t.257-1.111.311-1.097.364-1.081q.196-.535.417-1.061t.467-1.04.518-1.016.567-.989.615-.961q.319-.472.66-.929.342-.456.705-.896.364-.439.748-.86.385-.422.789-.824.405-.401.829-.783t.865-.742q.442-.361.901-.699.459-.339.934-.655.475-.315.965-.608.489-.292.993-.56.503-.268 1.019-.511t1.043-.461 1.064-.409 1.083-.357 1.099-.303q.553-.139 1.113-.25t1.123-.195"/>
  <path fill="#E67B3D" d="M434.959 503.209c1.346-.148 2.397-.278 3.726.117 2.718 2.542 2.177 7.933 2.979 11.472l.15.635c5.451 3.142 11.886 3.784 17.569 6.409 3.984-2.606 7.623-5.508 11.305-8.512 5.327 5.119 9.492 11.526 14.774 16.83-4.686 3.247-10.724 5.998-14.661 10.07.681 3.57 1.676 16.05 2.913 18.164 2.211 3.782 9.875 5.088 13.842 6.305-1.104 4.089-2.78 14.986-6.35 17.054-4.418.756-10.929-2.717-15.102-4.218-4.905 3.353-9.586 7.634-14.078 11.538.796 4.311 1.359 8.688 2.021 13.024-3.917 1.161-7.956 1.973-11.937 2.883-.661.092-1.406.081-2.075.112-3.197-2.126-4.839-9.348-6.506-12.881-4.696-1.678-9.547-3.059-14.29-4.621-4.34 3.432-8.697 6.772-13.352 9.769-4.083-4.352-8.36-9.096-11.302-14.31 3.482-2.838 7.071-5.802 9.867-9.333-1.287-4.548-2.156-13.361-4.328-17.097-2.488-4.277-11.963-5.108-16.429-6.156 2.576-6.479 4.509-13.288 6.737-19.901l15.265 3.873c5.166-4.296 10.608-8.284 14.532-13.802-.294-5.556-1.999-10.959-2.281-16.571 5.705-.054 11.327-.4 17.011-.853"/>
  <path fill="#3B4C58" d="M435.447 534.799q.491-.037.983-.051t.984-.002q.493.01.984.045t.98.094.974.141.966.189.956.236.943.282.928.328.911.373.892.417.87.46q.429.24.847.502.417.261.821.543.404.281.793.582.39.301.765.621.374.319.733.657.358.337.7.692t.665.725.629.758q.305.386.591.787.286.4.552.815t.512.841.47.865q.224.438.427.887.202.448.383.906.18.458.338.925.158.466.293.94t.247.953q.111.479.199.964.088.484.152.972.065.488.105.979t.057.983.008.984-.04.984-.087.98-.136.975-.183.967-.23.957-.277.945-.322.93-.368.913q-.194.453-.411.895t-.455.872q-.238.431-.497.85t-.538.825-.578.797-.616.767-.653.737q-.335.361-.687.704-.353.344-.722.67t-.753.634-.784.595q-.399.289-.812.557-.412.269-.838.517-.425.248-.862.475t-.884.432-.905.389-.922.344-.938.298-.952.252-.962.206-.972.158-.978.11q-.494.044-.99.063t-.992.014-.991-.035-.988-.084-.983-.133-.975-.18q-.486-.103-.966-.229-.479-.126-.952-.275t-.938-.323q-.465-.172-.921-.368-.456-.195-.902-.413t-.88-.457-.857-.499-.831-.542-.804-.581q-.394-.301-.773-.621-.38-.319-.743-.658-.363-.338-.709-.693-.346-.356-.674-.728t-.637-.76-.599-.79-.56-.819-.518-.846q-.249-.429-.476-.87-.228-.441-.433-.892-.206-.452-.388-.913t-.343-.931-.297-.946-.249-.96-.203-.971q-.089-.488-.154-.98-.064-.492-.105-.986t-.057-.99-.008-.992.041-.991.09-.988.138-.982.186-.974.234-.964.282-.951q.152-.472.328-.936.175-.464.373-.919t.418-.899.463-.878q.241-.433.504-.854.263-.42.547-.828.283-.407.586-.8.303-.392.625-.77.322-.377.662-.738t.698-.705.732-.67.763-.633q.39-.307.794-.594.405-.288.822-.555.418-.267.849-.513t.873-.471.895-.428.915-.383.933-.337.948-.291.961-.244.972-.196.981-.148.987-.1"/>
  <path fill="#E67B3D" d="m540.184 463.489.546.09c1.986 1.647 3.324 7.82 4.17 10.353 5.506.103 10.809 1.213 16.163 2.415 2.944-3.25 5.383-7.143 8.118-10.603l11.051 7.581c-1.708 3.668-4.025 7.179-5.958 10.753 2.643 4.768 4.583 9.862 6.669 14.89l11.361.127-.128 11.71c-3.931.457-7.772 1.091-11.597 2.107-1.8 4.619-3.636 9.195-5.651 13.726 1.894 2.71 4.34 5.174 6.531 7.657-3.217 3.04-6.536 5.78-10.303 8.111-2.504-2.497-4.835-5.224-7.273-7.793l-9.2 3.039-1.875.9c-1.824 2.739-1.731 7.483-2.014 10.694-3.887.051-7.819-.206-11.707-.331l-.088-11.753-9.964-6.37c-3.311 2.413-6.588 4.792-10.115 6.885-3.442-3.299-5.789-7.157-8.158-11.255 3.403-2.538 6.893-5.172 9.72-8.353l-3.29-14.164c-3.787-1.51-7.749-2.69-11.616-3.985q.415-2.671.872-5.334c.396-2.276.863-5.456 3.148-6.678 3.095-1.656 8.13.622 11.196 1.579q5.348-5.046 10.552-10.241-1.522-5.843-2.642-11.777 5.756-1.946 11.482-3.98"/>
  <path fill="#3B4C58" d="M545.267 488.96q.419-.103.843-.185t.851-.143.857-.101.86-.059q.432-.019.863-.017.432.002.862.026.431.023.861.067.429.045.856.11.426.065.849.151t.841.193.83.234.818.274.804.314.787.353.77.391q.379.205.749.428.369.224.727.465t.703.499.679.534q.332.275.651.566.318.291.623.597.304.306.592.627.289.321.562.655.272.335.528.682t.495.707.459.73q.221.371.423.752.203.382.386.772.183.391.347.79t.309.806.268.82.228.832.187.842.145.851.104.856q.041.43.061.861.021.431.02.863-.001.431-.023.862t-.065.86-.108.857q-.064.426-.149.849t-.19.842-.232.831-.272.819q-.146.406-.311.804-.166.399-.351.789t-.389.77-.426.75-.462.729q-.241.358-.498.705-.257.346-.532.679-.274.334-.564.653-.29.32-.595.624-.305.305-.625.595t-.654.563q-.334.274-.68.531t-.706.496-.729.462q-.37.221-.751.425-.38.203-.771.388-.39.184-.788.349-.399.165-.805.311-.407.145-.82.271-.412.125-.831.23-.42.105-.845.19t-.853.148-.859.106-.864.064-.866.021-.865-.021-.864-.064-.859-.107q-.429-.063-.853-.148-.425-.085-.845-.19-.42-.106-.835-.232-.414-.126-.822-.272-.407-.146-.807-.312t-.792-.352q-.391-.186-.773-.39t-.753-.428q-.371-.223-.731-.464t-.707-.499-.682-.534-.655-.567-.626-.598-.597-.628-.564-.656q-.274-.336-.531-.684-.258-.348-.498-.709-.24-.36-.462-.732t-.425-.755q-.203-.382-.388-.774-.184-.392-.349-.792-.165-.401-.309-.809-.145-.408-.27-.823t-.229-.835-.188-.845-.145-.854q-.063-.429-.104-.86t-.061-.863-.019-.866q.001-.433.024-.866.023-.432.067-.863.043-.431.108-.859t.151-.853q.086-.424.193-.844t.234-.834.274-.821q.148-.407.315-.807.167-.399.354-.79t.392-.772.43-.752.466-.73.502-.706q.259-.346.535-.68t.569-.653.599-.625q.308-.305.63-.594t.659-.563.685-.529q.349-.257.71-.496.361-.238.734-.459.372-.221.755-.423.383-.203.776-.386.392-.183.793-.347t.81-.307.823-.268q.415-.123.836-.226"/>
  <path fill="#85A5B6" d="M452.432 701.257c12.195 3.052 24.095 7.562 36.32 10.701q24.322 6.087 48.948 10.797 24.625 4.71 49.477 8.027c11.933 1.656 23.991 3.707 36.022 4.422-2.121 5.086-4.058 10.299-6.839 15.069-1.087 1.784-2.326 3.246-3.739 4.78-.818.354-1.629.668-2.485.921-7 2.07-15.895 1.075-23.132.6-34.942-2.298-99.625-14.625-130.424-30.709-3.914-7.835-4.116-16.015-4.148-24.608m91.921-289.092c13.535.221 32.477 4.645 46.336 6.968 11.993 2.01 24.189 3.219 36.062 5.857 4.673 1.038 9.356 2.25 11.966 6.648 1.462 2.463 2.144 5.476 1.993 8.327-.323 6.082-1.915 12.553-3.111 18.523q-3.907 19.462-8.563 38.758c-4.54 19.56-8.386 39.298-12.79 58.895-1.918 8.534-7.912 40.288-11.335 45.731-1.575 2.506-4.096 4.102-6.536 5.646-1.235.567-2.149 1.014-3.548.988-.823-1.589.719-8.503 1.111-10.494 2.799-14.222 6.702-28.183 9.769-42.337l25.669-119.479c-20.482-2.826-40.961-6.096-61.403-9.226-9.689-1.483-19.537-3.608-29.298-4.319l-.944-.065c.09-2.513 3.278-8.189 4.622-10.421m-45.727 178.996c11.041.314 22.646 3.123 33.526 5.034 17.804 3.128 35.513 6.208 53.366 9.046l-.842 7.478c-2.217.21-4.464.255-6.689.363-14.055-.028-27.521-3.683-41.245-6.269-15.563-2.931-31.205-5.513-46.596-9.27 2.387-3.656 4.18-5.34 8.48-6.382"/>
  <path fill="#3B4C58" d="M271.802 118.552c1.558-.048 3.153-.13 4.709-.037 10.131.604 19.055 9.241 25.313 16.578 4.393 5.15 8.063 11.26 7.341 18.309-1.067 10.417-11.932 17.181-19.352 23.373 9.215 8.598 27.962 16.818 30.412 30.23.746 4.085-.364 8.103-2.686 11.487-2.767 4.033-20.302 22.187-24.29 24.687-2.854 1.789-5.693 2.353-8.936 2.997-7.735-2.678-10.987-7.341-16.4-12.903l-5.406-1.52c-3.553 1.051-7.004 2.765-9.575 5.51-3.419 3.652-3.518 6.972-3.307 11.647l.541.728c2.567 3.496 6.748 5.893 10.071 8.66 5.361 4.464 7.438 8.091 8.056 14.934-1.193 3.093-2.56 5.531-4.671 8.119-4.566 5.597-16.521 17.822-22.442 21.605-2.3 1.47-4.871 2.512-7.617 2.696-2.869.193-5.629-.597-8.093-2.041-5.649-3.312-19.036-17.364-25.172-22.76-4.585 4.479-7.91 9.818-12.784 14.169-3.607 2.755-6.916 4.927-11.556 5.546-5.96.795-11.596-1.505-16.181-5.19-5.483-4.406-10.878-11.557-11.479-18.699-.647-7.686 1.195-13.747 7.579-18.345 1.852-1.334 4.135-2.666 5.521-4.506.789-1.047 1.417-2.091 1.11-3.456-1.515-6.731-25.307-20.369-26.537-31.626-1.059-9.694 10.449-20.999 16.299-28.202 2.951-3.634 8.203-9.332 13.106-9.655 7.429-.489 11.561 6.316 16.358 10.69 2.92 2.663 6.641 4.418 10.671 4.151 4.231-.282 7.759-3.062 10.353-6.231 12.207-14.917-12.919-16.98-14.126-32.537-.379-4.889 1.756-9.075 4.873-12.699 5.509-6.406 20.13-23.889 28.089-24.254 10.176-.467 24.803 15.267 32.003 22.058 1.1-3.986 1.826-7.974 3.812-11.646 3.069-5.675 8.215-10.032 14.393-11.867"/>
  <path fill="#E67B3D" d="M274.413 130.977c6.839-.132 11.91 4.975 16.596 9.363 2.832 2.652 6.365 6.154 6.382 10.292.033 8.05-12.805 13.448-17.533 18.735-2.092 2.339-3.199 5.076-2.917 8.227.515 5.747 21.221 20.484 25.872 24.635 2.036 1.818 4.508 4.206 4.358 7.192-.261 5.212-17.131 20.428-21.518 24.231-7.523-5.413-11.521-13.015-21.814-14.036-6.462-.641-12.83 2.542-17.591 6.71-5.071 4.44-8.872 10.8-9.179 17.643-.704 15.742 10.655 17.022 19.081 25.996l.477.518c-6.429 7.216-15.625 17.351-23.374 22.997-7.197-4.186-12.631-10.689-18.855-16.114-4.36-3.8-10.879-8.742-16.951-8.112-6.075.631-10.094 8.019-13.542 12.422-1.38 1.597-2.933 3.234-4.73 4.362-2.368 1.487-5.469 1.973-8.183 1.339q-.622-.146-1.227-.354-.604-.208-1.184-.476-.58-.269-1.13-.595t-1.064-.706-.986-.811q-.473-.43-.899-.907-.426-.476-.802-.993t-.697-1.07c-9.519-16.365 10.452-18.477 12.615-28.479 2.424-11.215-22.307-26.315-27.727-35.669l-.281-.499c.377-.969.801-1.907 1.314-2.813 3.172-5.608 12.542-18.215 18.732-20.007 3.17.171 6.355 5.242 8.484 7.449 3.84 3.98 9.729 5.606 15.129 5.519 7.494-.122 14.458-3.488 19.496-8.966 4.417-4.802 8.203-11.367 7.767-18.08-.622-9.575-8.096-13.841-14.475-19.474-1.649-1.457-2.724-2.558-2.889-4.833 1.114-3.909 15.661-20.3 19.58-21.987 7.443-3.203 24.083 18.983 32.067 21.073 10.735 2.811 11.845-13.092 16.009-18.949 1.493-2.099 3.437-3.421 5.589-4.773"/>
  <path fill="#3B4C58" d="M155.574 343.733c6.867-.287 22.956.439 28.061 4.983 6.186 5.507 2.77 12.183 3.564 18.964.018.153.194 1.014.232 1.062.359.464 9.313 5.274 10.798 6.383 7.981-3.203 10.434-7.003 19.739-6.575.375.261.751.52 1.115.797 6.253 4.761 13.344 18.017 14.27 25.82 1.436 12.098-7.357 9.969-11.241 15.97-1.753 2.708-.593 10.908.061 14.017l.805.506-.221.694c5.187 2.686 12.439 3.392 16.403 8.067 1.081 3.364.391 7.138-.254 10.552-1.336 7.074-6.197 20.011-12.343 23.983-5.418 3.501-10.802 1.088-16.443-.003-4.638-.897-7.595 4.901-11.104 7.267 1.247 3.466 2.228 6.852 2.75 10.507.458 3.203.722 8.23-1.504 10.872-3.339 3.964-19.481 9.401-24.827 9.746-13.459.871-11.006-10.546-14.833-14.003l-.87.031c-3.671-.437-7.228-1.264-10.799-2.2-3.453 3.716-6.276 9.391-11.498 10.833-6.628 1.83-16.442-1.759-22.214-5.117-3.833-2.229-6.888-5.513-7.882-9.929-1.383-6.138.97-12.942 4.297-18.074-2.273-4.2-6.624-6.915-7.975-11.566-4.678 1.246-9.951 3.231-14.824 2.502-2.906-.434-4.903-1.908-6.603-4.264-3.808-5.276-8.156-23.647-6.946-30.059 1.354-7.175 6.068-8.558 12.253-10.479 1.428-.443 2.794-1.216 4.227-1.579 1.876-.475 2.772-.191 4.498-1.394.125-.087.247-.18.37-.27l2.873-10.201c-3.624-4.754-6.17-10.077-8.868-15.381q.01-.233.024-.466l.058-.774c.035-.523.055-1.048.106-1.57.943-9.803 13.169-17.216 20.175-23.039 2.022-.289 4.029-.747 6.032-1.146 5.883 1.922 9.413 5.943 14.54 9.065 3.556-3.063 7.555-4.406 12.063-5.34l.627-.126c.794-4.578.935-9.544 3.415-13.617 1.779-2.92 4.611-4.677 7.893-5.449m6.656 100.221q.435-.088.864-.198.43-.11.854-.24t.841-.281.826-.323.809-.362.791-.401q.39-.211.77-.44.379-.229.747-.476.368-.248.724-.513.355-.265.697-.547t.67-.581.641-.613.61-.643q.297-.33.578-.673t.544-.7.509-.726.474-.75q.227-.38.436-.772.208-.391.398-.792.189-.401.358-.811t.319-.827.277-.842q.129-.425.236-.855.108-.43.195-.865.086-.435.151-.874.065-.438.109-.88.043-.441.065-.884t.023-.886q0-.444-.021-.887t-.065-.884-.108-.88-.15-.874-.193-.865q-.107-.431-.235-.855-.128-.425-.277-.843-.148-.418-.317-.828t-.358-.811-.397-.793-.435-.772-.472-.751q-.246-.369-.509-.726t-.543-.701q-.28-.343-.577-.673t-.609-.644-.64-.614-.67-.582q-.341-.282-.696-.548-.356-.265-.723-.513-.368-.248-.747-.478-.38-.229-.77-.44t-.79-.403q-.4-.191-.809-.363t-.826-.323q-.416-.151-.84-.282t-.853-.241q-.43-.111-.864-.2-.435-.088-.873-.156t-.879-.114-.884-.07-.886-.028q-.444-.002-.887.017-.443.018-.885.059-.441.04-.88.103-.439.062-.875.145-.439.084-.873.19-.434.105-.862.232-.429.127-.85.274-.422.148-.835.316-.414.169-.819.357-.405.189-.8.397-.396.208-.78.436-.385.227-.757.473-.373.246-.734.51-.36.264-.707.546-.346.282-.679.58-.332.298-.65.613-.317.314-.619.643-.301.33-.586.674t-.553.702-.517.728-.481.752-.444.775-.404.797q-.193.403-.365.815-.173.412-.324.832t-.283.847-.241.86-.198.871-.155.88-.112.886-.068.891q-.023.446-.024.892-.001.447.021.893.021.447.064.891.043.445.108.887.064.442.151.88t.195.872.237.861.279.848.321.834.362.816.401.798.44.777q.23.384.478.755t.514.73.55.704.584.676.616.647.648.615.677.582.705.549.731.513.755.477.778.439.798.4q.405.19.818.36t.834.319.849.278q.427.129.861.236.434.108.872.193.439.086.881.15t.886.107q.445.042.891.062.447.021.893.019.447-.002.893-.025.446-.024.891-.069.444-.046.886-.113.441-.068.879-.157"/>
  <path fill="#FCC244" d="M157.46 355.028c3.594.074 14.652.122 17.005 2.701 2.508 2.749.74 11.415.418 14.873 3.382 2.5 7.273 4.38 10.748 6.799 3.797 2.643 7.213 5.743 11.065 8.323 4.309-.934 14.805-6.806 17.131-5.921 3.81 1.451 7.113 10.075 8.753 13.742-3.584 4.519-8.891 6.857-12.612 11.17-.193 8.643 1.352 17.462 1.473 26.175 5.346 3.134 11.593 3.692 16.834 7.273-1.576 6.608-3.814 13.244-7.554 18.957-5.367-1.274-10.539-3.471-15.805-5.123-4.094 5.263-12.907 11.277-15.626 15.966-4.478 7.719 3.651 14.414 1.839 17.998-1.908 3.774-13.005 6.112-17.031 7.297-2.072-3.685-3.091-7.965-5.423-11.493-1.467-2.22-2.68-2.934-5.288-3.397-5.725-.526-11.43-1.349-17.117-2.18-4.84 3.627-7.803 8.819-12.124 12.968-5.489-2.447-11.232-4.476-16.448-7.477 1.421-6.072 3.928-11.91 4.705-18.111-2.621-4.932-10.475-16.537-14.32-20.142-4.266.418-10.81 2.794-14.842 1.751-1.58-.409-2.653-1.334-3.42-2.748-1.5-2.766-3.5-12.892-2.522-15.832 4.77-4.173 12.42-4.106 18.126-6.742q.29-.137.579-.276c2.608-7.921 4.187-16.435 6.517-24.496-3.012-5.008-7.69-8.217-10.381-13.653 2.916-2.975 9.799-10.851 13.698-11.556 4.162-.753 11.239 6.424 14.63 8.772 3.235-1.453 6.252-3.334 9.538-4.717 4.442-1.87 9.027-2.648 13.694-3.717 1.788-5.622 1.571-11.634 3.76-17.184m4.77 88.926q.435-.088.864-.198.43-.11.854-.24t.841-.281.826-.323.809-.362.791-.401q.39-.211.77-.44.379-.229.747-.476.368-.248.724-.513.355-.265.697-.547t.67-.581.641-.613.61-.643q.297-.33.578-.673t.544-.7.509-.726.474-.75q.227-.38.436-.772.208-.391.398-.792.189-.401.358-.811t.319-.827.277-.842q.129-.425.236-.855.108-.43.195-.865.086-.435.151-.874.065-.438.109-.88.043-.441.065-.884t.023-.886q0-.444-.021-.887t-.065-.884-.108-.88-.15-.874-.193-.865q-.107-.431-.235-.855-.128-.425-.277-.843-.148-.418-.317-.828t-.358-.811-.397-.793-.435-.772-.472-.751q-.246-.369-.509-.726t-.543-.701q-.28-.343-.577-.673t-.609-.644-.64-.614-.67-.582q-.341-.282-.696-.548-.356-.265-.723-.513-.368-.248-.747-.478-.38-.229-.77-.44t-.79-.403q-.4-.191-.809-.363t-.826-.323q-.416-.151-.84-.282t-.853-.241q-.43-.111-.864-.2-.435-.088-.873-.156t-.879-.114-.884-.07-.886-.028q-.444-.002-.887.017-.443.018-.885.059-.441.04-.88.103-.439.062-.875.145-.439.084-.873.19-.434.105-.862.232-.429.127-.85.274-.422.148-.835.316-.414.169-.819.357-.405.189-.8.397-.396.208-.78.436-.385.227-.757.473-.373.246-.734.51-.36.264-.707.546-.346.282-.679.58-.332.298-.65.613-.317.314-.619.643-.301.33-.586.674t-.553.702-.517.728-.481.752-.444.775-.404.797q-.193.403-.365.815-.173.412-.324.832t-.283.847-.241.86-.198.871-.155.88-.112.886-.068.891q-.023.446-.024.892-.001.447.021.893.021.447.064.891.043.445.108.887.064.442.151.88t.195.872.237.861.279.848.321.834.362.816.401.798.44.777q.23.384.478.755t.514.73.55.704.584.676.616.647.648.615.677.582.705.549.731.513.755.477.778.439.798.4q.405.19.818.36t.834.319.849.278q.427.129.861.236.434.108.872.193.439.086.881.15t.886.107q.445.042.891.062.447.021.893.019.447-.002.893-.025.446-.024.891-.069.444-.046.886-.113.441-.068.879-.157"/>
  <path fill="#3B4C58" d="M154.768 395.779q.717-.096 1.437-.157t1.444-.087q.722-.026 1.445-.017t1.445.053 1.441.123 1.433.193 1.422.262q.707.149 1.407.331t1.39.399 1.369.466 1.344.531 1.318.596q.651.314 1.287.66.635.345 1.253.721.618.375 1.217.781.599.405 1.177.839t1.136.895q.556.461 1.09.949t1.044 1.001q.509.513.993 1.05.484.538.942 1.098t.887 1.142.831 1.183q.4.602.772 1.222.371.621.712 1.259t.65 1.291q.31.654.587 1.321.277.668.522 1.349t.456 1.372.389 1.392q.177.701.321 1.41.143.709.252 1.424t.183 1.434.113 1.442.043 1.445-.027 1.446q-.032.722-.098 1.442t-.167 1.436q-.101.717-.236 1.427-.136.71-.306 1.413t-.374 1.397-.441 1.377-.507 1.354-.572 1.328-.637 1.298q-.333.642-.698 1.266-.364.625-.759 1.231-.394.606-.818 1.192t-.874 1.152q-.452.565-.93 1.107-.478.543-.982 1.061-.504.519-1.032 1.013-.529.493-1.08.961-.552.467-1.126.907t-1.168.852q-.595.412-1.209.794t-1.245.735q-.632.352-1.28.673t-1.31.61q-.663.29-1.339.547t-1.364.48q-.687.224-1.385.414t-1.404.346-1.419.278q-.486.083-.975.15-.488.067-.979.117t-.983.085-.985.053q-.492.018-.986.019-.493.002-.986-.013t-.985-.045-.983-.078-.98-.111-.976-.143-.971-.175-.964-.207-.957-.239q-.476-.128-.948-.271t-.939-.301-.929-.333q-.461-.174-.917-.363-.455-.189-.904-.394-.449-.204-.891-.423t-.877-.452q-.434-.233-.86-.481-.427-.248-.845-.509-.418-.262-.827-.537-.41-.276-.809-.564-.4-.289-.79-.591t-.77-.616q-.38-.315-.749-.642-.37-.327-.728-.666t-.705-.689-.682-.713-.658-.735-.633-.756-.608-.777q-.297-.393-.582-.796-.284-.403-.555-.815t-.528-.833-.5-.851-.471-.866q-.229-.437-.443-.881t-.413-.896q-.2-.451-.384-.908-.184-.458-.353-.921-.169-.464-.322-.932-.154-.469-.292-.943-.138-.473-.26-.951t-.229-.959q-.106-.482-.196-.967t-.165-.972-.132-.978q-.058-.489-.1-.981-.041-.491-.067-.984-.025-.492-.035-.986-.009-.493-.002-.986t.031-.986.063-.984.096-.982.128-.978.16-.973.193-.967.224-.96.257-.953.287-.943.319-.934.349-.922.38-.91q.197-.452.409-.898.212-.445.439-.883t.468-.868.497-.852.524-.835q.269-.414.552-.818t.578-.799.605-.779.63-.759.655-.737.679-.716q.345-.352.702-.692.357-.341.725-.669t.746-.645q.379-.316.768-.619.389-.304.787-.594.399-.29.807-.567t.825-.541q.417-.263.842-.513.426-.249.859-.484.434-.235.875-.456t.889-.427.903-.397.915-.367.928-.337q.466-.16.937-.305t.948-.275q.476-.129.955-.243.48-.113.964-.211.483-.097.97-.179.486-.082.975-.147m7.462 48.175q.435-.088.864-.198.43-.11.854-.24t.841-.281.826-.323.809-.362.791-.401q.39-.211.77-.44.379-.229.747-.476.368-.248.724-.513.355-.265.697-.547t.67-.581.641-.613.61-.643q.297-.33.578-.673t.544-.7.509-.726.474-.75q.227-.38.436-.772.208-.391.398-.792.189-.401.358-.811t.319-.827.277-.842q.129-.425.236-.855.108-.43.195-.865.086-.435.151-.874.065-.438.109-.88.043-.441.065-.884t.023-.886q0-.444-.021-.887t-.065-.884-.108-.88-.15-.874-.193-.865q-.107-.431-.235-.855-.128-.425-.277-.843-.148-.418-.317-.828t-.358-.811-.397-.793-.435-.772-.472-.751q-.246-.369-.509-.726t-.543-.701q-.28-.343-.577-.673t-.609-.644-.64-.614-.67-.582q-.341-.282-.696-.548-.356-.265-.723-.513-.368-.248-.747-.478-.38-.229-.77-.44t-.79-.403q-.4-.191-.809-.363t-.826-.323q-.416-.151-.84-.282t-.853-.241q-.43-.111-.864-.2-.435-.088-.873-.156t-.879-.114-.884-.07-.886-.028q-.444-.002-.887.017-.443.018-.885.059-.441.04-.88.103-.439.062-.875.145-.439.084-.873.19-.434.105-.862.232-.429.127-.85.274-.422.148-.835.316-.414.169-.819.357-.405.189-.8.397-.396.208-.78.436-.385.227-.757.473-.373.246-.734.51-.36.264-.707.546-.346.282-.679.58-.332.298-.65.613-.317.314-.619.643-.301.33-.586.674t-.553.702-.517.728-.481.752-.444.775-.404.797q-.193.403-.365.815-.173.412-.324.832t-.283.847-.241.86-.198.871-.155.88-.112.886-.068.891q-.023.446-.024.892-.001.447.021.893.021.447.064.891.043.445.108.887.064.442.151.88t.195.872.237.861.279.848.321.834.362.816.401.798.44.777q.23.384.478.755t.514.73.55.704.584.676.616.647.648.615.677.582.705.549.731.513.755.477.778.439.798.4q.405.19.818.36t.834.319.849.278q.427.129.861.236.434.108.872.193.439.086.881.15t.886.107q.445.042.891.062.447.021.893.019.447-.002.893-.025.446-.024.891-.069.444-.046.886-.113.441-.068.879-.157m-41.259 158.829c5.489.179 8.749.532 12.735 4.787 4.133 4.41 7.86 15.928 14.539 16.292 3.451.188 6.864-1.571 9.293-3.893 2.476-2.365 4.552-5.387 4.525-8.942-.019-2.498-1.225-4.529-3.006-6.211-6.027-5.689-14.134-8.926-14.678-18.499-.283-4.977 1.408-8.299 4.726-11.849 4.759-5.092 25.375-20.948 31.764-21.188 3.876-.145 7.809 2.573 10.401 5.201 2.731 2.77 5.062 5.914 7.795 8.684 5.591 5.667 15.705 13.06 15.647 21.817-.017 2.636-.656 5.16-.938 7.76-3.03 3.652-11.375 11.531-10.649 16.498.325 2.226 4.005 5.685 5.901 6.806 2.061 1.219 4.212 1.362 6.493.729 6.508-1.806 13.332-11.016 20.733-6.755 5.045 2.905 27.327 29.656 28.614 34.822.778 3.124-.127 6.746-1.844 9.4-3.63 5.615-78.011 64.96-86.837 70.528q-2.241 1.106-4.703 1.536c-4.495.778-8.757.032-12.469-2.644-9.729-6.949-13.314-17.979-21.714-24.884-5.526 6.352-14.463 11.747-22.979 12.362-5.509.398-10.549-1.676-14.664-5.267-5.135-4.48-9.413-11.574-9.888-18.435-.365-5.258 1.654-10.404 5.235-14.225 3.866-4.124 9.339-6.116 12.528-10.861-.109-.191-.214-.385-.327-.574-6.047-10.181-23.56-20.79-19.996-34.599 2.128-8.244 22.462-22.312 30.14-26.544a55 55 0 0 1 3.623-1.852"/>
  <path fill="#85A5B6" d="M159.013 727.662c2.802-.165 14.471.523 17.172 1.108q-2.241 1.106-4.703 1.536c-4.495.778-8.757.032-12.469-2.644"/>
  <path fill="#FCC244" d="M179.11 566.985c.831.002 1.672-.024 2.498.09 3.529.487 18.814 18.391 21.42 22.045-2.344 6.486-8.303 10.55-10.519 16.893-1.726 4.94-1.048 10.477 1.393 15.049q.264.493.551.972.288.48.599.945.31.464.643.914.333.449.688.881.354.433.729.847.375.415.77.811t.808.772q.414.376.846.731.431.356.879.69.449.334.913.646t.943.601.971.554.996.505 1.021.457 1.041.407 1.06.355c10.093 3.052 16.211-2.073 24.425-6.617l.275.225c.954.772 1.895 1.559 2.761 2.431 3.028 3.046 17.267 19.491 17.272 22.78-5.155 6.836-13.138 12.12-19.802 17.426l-32.205 25.308c-10.027 7.907-19.957 17.571-30.995 23.915-10.086-3.481-15.515-17.791-23.303-25.136-2.557-1.686-5.073-2.45-8.001-3.163-5.346 1.795-9.618 6.07-14.224 9.222-3.38 2.314-7.629 4.417-11.835 3.499-2.776-.607-4.865-2.546-6.38-4.871-9.986-15.334 6.873-14.916 12.547-25.139 1.07-1.928 1.411-4.48 1.857-6.626-3.54-11.507-14.375-16.975-19.5-27.202-.747-1.49-1.446-3.497-.635-5.108 1.644-3.265 16.823-15.243 20.326-16.918 1.139-.544 2.804-1.233 4.08-.803 5.342 1.799 7.731 16.168 18.545 19.735 5.906 1.948 12.403-.109 17.663-2.95 6.543-3.535 10.843-8.918 12.87-16.09 5.358-18.962-12.543-20.524-15.954-28.012-.593-1.3-.62-2.284-.163-3.637 1.511-4.472 17.605-15.031 22.126-17.434m682.201 241.494q.791-.107 1.586-.175.796-.067 1.594-.096t1.596-.019 1.595.06 1.59.137 1.582.216q.788.126 1.569.292t1.553.369 1.533.444 1.509.519 1.482.592q.734.315 1.452.664t1.417.735q.7.384 1.38.803.68.418 1.339.869t1.294.934 1.247.996 1.197 1.056q.586.542 1.144 1.113.558.57 1.088 1.168.53.597 1.03 1.219t.968 1.269.906 1.315q.436.668.84 1.357t.772 1.397.703 1.433.632 1.465q.299.741.56 1.495t.486 1.521.411 1.542.335 1.561q.148.784.258 1.575t.181 1.586.103 1.593.024 1.596-.053 1.595-.131 1.591-.209 1.582-.287 1.571-.363 1.554q-.2.773-.438 1.535t-.513 1.511-.587 1.485-.658 1.454-.729 1.42-.797 1.383q-.416.681-.864 1.342-.449.66-.929 1.298t-.992 1.251q-.51.614-1.051 1.201t-1.109 1.148-1.163 1.093-1.216 1.034-1.265.974-1.311.91-1.354.845-1.394.778-1.43.709-1.463.638-1.493.565-1.519.492-1.54.417q-.776.19-1.56.341t-1.574.264q-.794.113-1.593.188-.799.074-1.6.109-.802.034-1.604.03t-1.603-.049q-.802-.044-1.599-.128-.798-.083-1.591-.206t-1.579-.284q-.786-.162-1.563-.362t-1.543-.437-1.52-.514q-.753-.275-1.493-.587-.739-.312-1.461-.66t-1.428-.731-1.39-.801-1.349-.868-1.305-.933q-.641-.483-1.257-.997-.616-.513-1.207-1.056-.59-.544-1.153-1.115-.563-.572-1.097-1.171-.534-.598-1.038-1.223-.504-.624-.976-1.272-.473-.649-.913-1.319-.44-.671-.847-1.363-.407-.691-.779-1.402t-.709-1.439-.637-1.472-.564-1.501q-.264-.758-.49-1.528t-.413-1.55-.338-1.568q-.149-.788-.259-1.583t-.181-1.594-.103-1.6q-.032-.802-.024-1.604.008-.803.055-1.603.047-.801.134-1.599.086-.797.212-1.59.126-.792.29-1.577.165-.786.368-1.562t.444-1.541.519-1.518q.278-.752.593-1.49t.666-1.46.736-1.425q.386-.703.806-1.386.42-.684.873-1.346.454-.662.939-1.301t1.001-1.253 1.061-1.203 1.12-1.149 1.175-1.092 1.226-1.033 1.277-.972 1.322-.908 1.366-.841 1.405-.774q.712-.369 1.442-.703.729-.334 1.474-.632.745-.297 1.504-.558t1.529-.484 1.552-.408q.78-.184 1.569-.331.789-.146 1.584-.253m31.724-638.352q.637-.097 1.279-.163.641-.065 1.285-.099t1.289-.036 1.289.028 1.286.091q.642.062 1.28.155t1.271.218q.632.124 1.258.28t1.243.342 1.225.403q.607.216 1.203.463.596.246 1.179.521.583.276 1.151.58t1.122.635 1.089.69 1.054.743q.517.385 1.015.794t.976.843q.477.434.932.891.455.456.887.935t.84.978.791 1.018.74 1.056q.356.537.686 1.091.33.555.632 1.124t.575 1.154q.274.584.518 1.18.245.597.459 1.205t.399 1.226.338 1.244q.154.627.276 1.26t.214 1.271q.091.638.151 1.28.059.642.087 1.287t.024 1.289-.04 1.288-.104 1.285-.167 1.278-.23 1.269q-.13.631-.292 1.256-.161.624-.353 1.239-.193.616-.415 1.221t-.474 1.199q-.252.593-.533 1.174-.281.58-.59 1.146t-.646 1.116-.7 1.082-.753 1.047q-.39.513-.804 1.008-.414.494-.852.967t-.899.924-.944.878q-.483.428-.986.831t-1.025.781-1.063.729-1.098.677q-.557.324-1.13.621-.572.296-1.158.564-.587.268-1.186.507t-1.209.448-1.23.387q-.619.178-1.247.326-.627.148-1.262.264-.634.117-1.273.202-.631.084-1.266.137t-1.272.075q-.636.023-1.273.014t-1.273-.049-1.269-.111-1.262-.173-1.252-.234-1.239-.295-1.223-.355-1.205-.414-1.183-.472-1.158-.53-1.132-.585q-.558-.307-1.101-.64-.543-.334-1.069-.693-.526-.36-1.033-.744-.508-.385-.997-.794-.488-.409-.956-.841-.468-.433-.914-.887-.446-.455-.87-.931-.423-.476-.823-.972t-.775-1.01-.725-1.048q-.35-.532-.673-1.081t-.619-1.113-.564-1.142q-.269-.578-.508-1.168-.24-.591-.451-1.192-.21-.601-.391-1.212t-.332-1.229-.272-1.245q-.121-.625-.211-1.256t-.149-1.265-.088-1.271q-.028-.636-.025-1.273t.037-1.273q.034-.637.099-1.27.065-.634.161-1.264.095-.63.222-1.254.126-.625.283-1.242.156-.618.343-1.227t.403-1.208.461-1.187.518-1.164.575-1.137.63-1.107.682-1.075.734-1.041.785-1.004.832-.964.878-.923.922-.878.964-.833q.492-.404 1.004-.784.511-.38 1.04-.735t1.075-.683q.546-.329 1.107-.63.562-.302 1.137-.575.575-.274 1.163-.519.588-.246 1.187-.462t1.209-.403 1.226-.344 1.242-.283q.624-.127 1.254-.223"/>
  <path fill="#3B4C58" d="M305.445 271.514c1.254-.061 2.619-.169 3.81.302 4.999 1.976 9.921 6.146 14.345 9.237 27.155 18.975 53.702 40.866 75.195 66.216 3.667 4.325 7.92 8.936 10.191 14.175.843 1.942 1.294 4.244.264 6.221-1.015 1.949-2.813 2.724-4.769 3.43-.852-.026-1.741-.031-2.557-.312-1.172-.404-2.088-1.196-2.95-2.056-3.568-3.561-6.557-7.847-9.82-11.697-3.584-4.229-7.497-8.189-11.424-12.096-14.473-14.399-29.463-28.092-45.701-40.492q-8.97-6.858-18.183-13.385c-3.507-2.494-7.521-4.885-10.738-7.723-1.382-1.218-2.314-3.284-3.189-4.889.176-.577.352-1.141.571-1.704 1.119-2.873 2.146-3.975 4.955-5.227m34.849-38.565c.175.029.353.048.527.087 4.634 1.035 9.781 6.029 13.478 9.03q8.072 6.661 15.798 13.72t15.086 14.501q7.36 7.44 14.335 15.243 6.975 7.802 13.547 15.947c4.351 5.357 9.244 10.964 12.689 16.95 1.304 2.266 2.55 4.967 1.619 7.612-.884 2.509-3.058 3.748-5.345 4.778-2.284-.809-4.242-1.448-5.978-3.193-5.521-5.546-9.935-12.807-14.995-18.851-11.877-14.185-24.458-28.015-38.07-40.568-6.275-5.785-24.268-18.671-27.674-25.073-.994-1.869-1.508-3.894-.714-5.937.939-2.417 3.43-3.492 5.697-4.246m-71.599 208.668c7.353.764 14.725 2.379 21.952 3.897 23.758 4.989 46.186 12.298 68.665 21.395 6.977 2.824 14.367 5.534 20.985 9.123 2.613 1.417 5.513 3.487 6.274 6.542.461 1.853-.224 3.98-1.254 5.532-1.091 1.645-2.457 1.96-4.252 2.335-7.097-1.078-13.617-5.677-20.227-8.374-13.552-5.528-27.101-10.987-41.066-15.412-10.367-3.284-21.096-5.736-31.745-7.916-6.594-1.35-14.684-1.941-20.759-4.629-1.755-.777-3.279-2.276-3.883-4.12-.519-1.581-.296-3.26.453-4.733 1.052-2.065 2.726-2.976 4.857-3.64m131.391 402.436c2.193-.167 4.219-.324 6.236.716 1.655.853 2.651 2.098 3.132 3.923.744 2.823-.839 6.352-2.276 8.696-4.404 7.185-11.018 14.229-17.038 20.024-20.084 19.335-41.631 30.922-68.603 37.638-3.432.141-6.186.25-9.009-2.004-1.268-1.012-2.001-2.3-2.008-3.969-.006-1.241.872-3.982 1.746-4.831 3.021-2.931 16.338-5.48 20.834-7.065q6.947-2.453 13.607-5.603 2.886-1.375 5.695-2.902t5.533-3.202q2.723-1.674 5.354-3.492 2.63-1.817 5.16-3.772t4.951-4.043q2.422-2.087 4.73-4.3 2.307-2.213 4.493-4.547t4.244-4.779c4.332-5.241 8.039-11.122 12.756-16.019q.23-.235.463-.469M275.425 396.05c18.959-.517 89.757 36.149 104.333 49.139 1.638 1.46 3.206 3.241 3.087 5.585-.137 2.699-2.362 4.464-4.322 5.968-.965.18-2.032.29-3.012.241-3.782-.188-22.421-13.092-26.541-15.55q-13.157-8.013-27.043-14.685-13.886-6.671-28.364-11.936c-4.846-1.762-18.611-5.469-21.441-9.234-.952-1.267-1.151-2.741-.775-4.254.652-2.62 1.802-3.908 4.078-5.274"/>
  <path fill="#FCC244" d="M870.095 383.698c7.006 2.728 6.274 16.813 11.462 22.161 4.547 4.688 11.423 5.063 16.828 8.174 1.411.812 2.553 1.863 2.907 3.513 1.057 4.933-14.295 7.896-17.797 10.469-7.499 5.51-6.836 16.697-11.582 24-1.246.077-1.949.176-3.098-.406-2.745-2.898-3.485-7.175-4.64-10.878-5.281-16.919-7.658-11.658-20.425-18.689-1.428-.787-3.155-2.048-3.355-3.806-.571-5.03 13.86-7.733 17.263-10.889 6.93-6.428 5.774-17.531 12.437-23.649"/>
  <path fill="#3B4C58" d="M337.502 537.561c1.167.258 2.227.487 3.259 1.116 1.47.896 2.4 2.234 2.719 3.93.321 1.709-.19 3.349-1.145 4.769q-.533.8-1.238 1.453c-3.981 3.721-15.977 7.734-21.453 10.355-7.504 3.592-15.195 7.395-22.282 11.749-6.305 3.875-24.158 18.101-29.538 19.173-1.128-.285-2.314-.558-3.354-1.093-1.638-.842-3.651-2.542-4.031-4.419-.308-1.524.16-2.988.929-4.295 2.629-4.469 8.361-7.762 12.59-10.677 17.383-11.98 43.048-27.218 63.544-32.061m280.503 314.913c1.137-.042 2.145-.027 3.262.226 1.858.42 3.331 1.328 4.213 3.089 1.855 3.704 1.865 9.437 2.695 13.563 1.079 5.367 3.061 10.468 5.507 15.353 4.545 9.075 10.478 16.215 18.55 22.402 4.05 3.103 10.613 6.016 13.132 10.49.915 1.623 1.347 3.416.574 5.207-.854 1.98-2.544 2.931-4.382 3.844-1.176.145-2.324.286-3.51.16-8.082-.859-20.752-12.806-25.847-18.842-9.123-10.808-20.742-32.701-19.158-47.174.441-4.034 1.809-5.891 4.964-8.318"/>
  <path fill="#FCC244" d="M434.779 92.725c5.677 1.006 6.077 14.518 10.376 18.638 3.426 3.283 8.829 4.198 12.704 6.901 1.427.995 1.889 1.835 2.21 3.511-1.284 3.563-11.656 5.882-14.827 8.931-4.797 4.614-4.311 12.563-8.353 17.887-.49-.073-.94-.115-1.409-.301-3.592-1.429-5.314-14.025-8.296-17.575-3.438-4.093-13.831-4.565-15.648-9.523-1.323-3.61 10.372-6.173 13.199-8.244 6.301-4.616 6.381-13.812 10.044-20.225m-310.825 724.76q.429-.08.861-.138t.866-.096.87-.054q.435-.016.871-.011t.871.032.869.074q.433.048.863.117.431.068.857.158.427.09.849.2.421.11.837.241t.825.282.81.322.793.361q.393.19.775.399t.754.437q.372.227.732.473.361.245.708.508.348.263.683.542.335.28.655.575.321.295.626.606.306.311.596.636.291.325.565.664t.531.691.496.717q.24.364.462.739.221.376.424.761.203.386.387.781t.348.799.309.815.269.829.228.842q.103.423.186.851t.145.859.102.866q.041.434.06.869.02.436.018.872t-.025.871-.067.869-.11.864-.152.859q-.087.427-.194.849-.107.423-.235.84-.127.416-.275.827-.148.41-.316.812-.167.402-.355.796t-.393.778-.431.757q-.224.374-.467.736t-.503.712-.537.686q-.276.337-.569.66t-.602.631-.631.601-.66.569q-.337.276-.687.536t-.712.502-.736.467-.758.431-.778.392-.796.355q-.403.167-.813.315-.41.147-.827.275-.417.127-.839.234-.423.107-.85.193-.431.087-.867.153-.435.065-.873.109t-.878.067q-.439.022-.879.023-.441.001-.88-.02-.44-.021-.878-.064t-.874-.107-.867-.15-.859-.192-.848-.234-.836-.276q-.414-.149-.821-.317-.406-.169-.804-.357-.398-.189-.786-.397-.388-.207-.765-.434-.378-.227-.744-.472-.365-.245-.718-.507-.354-.263-.693-.543-.34-.28-.666-.576-.325-.296-.636-.608-.31-.312-.605-.639t-.573-.668q-.279-.341-.54-.695-.261-.355-.504-.722-.244-.366-.469-.745-.225-.378-.431-.767t-.393-.788-.353-.806q-.167-.407-.313-.822-.147-.415-.273-.837t-.23-.849-.189-.86-.146-.868-.103-.874-.06-.878-.016-.88.027-.88.07-.877.114-.873.156-.866q.089-.431.199-.857t.241-.847q.131-.42.283-.833.151-.414.323-.819t.363-.802q.192-.396.403-.782.21-.387.44-.762.23-.376.477-.74.248-.364.514-.715.265-.351.548-.689.282-.337.581-.66.299-.324.613-.632t.643-.6.673-.568.699-.535q.357-.258.725-.499.369-.24.749-.462t.771-.425q.39-.203.79-.387t.809-.347.825-.307.839-.266.851-.224.861-.182"/>
  <path fill="#3B4C58" d="M580.136 902.942c.717.11 1.431.213 2.134.396 1.584.415 2.848 1.052 3.907 2.332 3.127 3.782 4.417 8.858 7.067 12.951 2.994 4.626 7.819 8.361 10.354 13.229.827 1.588 1.112 3.588.418 5.287-.798 1.954-2.461 3.093-4.24 4.053-1.386-.005-2.872.051-4.198-.408-7.29-2.52-14.105-14.572-17.341-21.008-1.849-3.679-4.242-8.866-2.684-12.984.852-2.252 2.519-3.009 4.583-3.848"/>
  <path fill="#536876" fill-opacity=".729" d="M273.903 516.498c2.148-.15 3.974-.144 6.012.633 2.491.949 4.705 2.766 5.773 5.253.891 2.077.918 4.311-.014 6.379-1.303 2.891-3.542 3.887-6.34 5.027-1.362.17-2.871.441-4.218.074-2.221-.605-4.334-2.408-5.474-4.379-1.34-2.316-1.777-5.216-.998-7.8.796-2.639 3.033-3.861 5.259-5.187"/>
  <path fill="#536876" fill-opacity=".686" d="M829.468 74.473c1.439.143 2.908.286 4.267.812 2.056.795 3.66 2.709 4.493 4.707.849 2.038.862 4.226-.056 6.246-1.096 2.413-2.803 3.491-5.183 4.45-.992-.008-2.056.013-3.02-.242-2.264-.598-4.47-2.61-5.532-4.657-.991-1.914-1.244-4.236-.501-6.28 1.022-2.81 2.922-3.884 5.532-5.036"/>
  <defs>
    <linearGradient id="a" gradientUnits="userSpaceOnUse" x1="822.165" y1="770.957" x2="823.628" y2="759.646">
      <stop offset="0" stop-color="#65696A" stop-opacity=".604"/>
      <stop offset="1" stop-color="#5E6466" stop-opacity=".655"/>
    </linearGradient>
  </defs>
  <path fill="url(#a)" d="M822.32 758.068c1.044.101 2.143.185 3.158.457 2.033.544 4.16 2.587 4.985 4.489.707 1.629.659 3.447.01 5.088-1.064 2.69-3.629 3.726-6.138 4.7-1.064.136-1.901.019-2.903-.337-1.864-.663-3.442-1.959-4.291-3.757-.928-1.965-.907-4.378-.091-6.377.981-2.401 2.975-3.394 5.27-4.263"/>
  <path fill="#536876" fill-opacity=".69" d="M282.73 339.153q.221-.06.446-.106t.452-.077q.228-.03.456-.046.229-.016.459-.017.229 0 .458.014t.456.044.453.074.447.104.438.132q.218.074.43.162.212.087.417.189.206.101.405.216.198.115.389.243.19.127.372.267t.354.292.334.314.313.335.289.356q.139.182.266.374.127.191.241.39t.214.405.187.419q.087.212.16.43.072.217.13.439t.102.448.071.452q.029.228.042.457t.011.459q-.001.229-.018.458-.017.228-.049.456-.032.227-.079.451-.047.225-.108.446-.062.221-.137.437-.076.217-.166.428t-.194.416-.221.402-.246.386-.272.37-.295.35q-.154.171-.318.331-.165.16-.339.309t-.359.286q-.183.137-.376.262-.193.124-.393.236t-.408.21-.42.183q-.214.084-.432.154t-.441.126q-.165.041-.331.074t-.334.058-.337.042-.338.025q-.17.009-.339.009-.17 0-.34-.008-.169-.008-.338-.024-.169-.017-.337-.041-.168-.025-.334-.057-.167-.033-.331-.074-.165-.041-.327-.089-.163-.049-.323-.106t-.317-.121-.311-.136-.303-.151-.296-.166q-.146-.086-.288-.18-.141-.093-.278-.194-.137-.1-.269-.207t-.258-.22q-.127-.113-.247-.232-.121-.119-.236-.244t-.223-.256-.211-.265q-.102-.136-.198-.276-.095-.141-.183-.285-.089-.145-.17-.294t-.155-.302q-.074-.152-.141-.309-.066-.156-.125-.315t-.109-.321-.094-.326-.078-.33q-.035-.166-.062-.334-.026-.167-.045-.336-.018-.169-.029-.338-.01-.17-.012-.339-.002-.17.004-.339.006-.17.021-.339.014-.169.037-.337t.054-.335q.03-.167.069-.332t.086-.329.102-.323q.055-.161.118-.318.062-.158.132-.313.071-.154.148-.305.078-.151.163-.298t.177-.289.191-.281q.099-.138.204-.271t.217-.26q.112-.128.23-.25t.241-.238q.124-.116.253-.226.13-.11.264-.214.134-.103.274-.2.139-.097.283-.187t.292-.173.3-.159q.152-.075.307-.143.156-.068.314-.129.159-.06.32-.113.161-.052.325-.097"/>
  <path fill="#536876" fill-opacity=".678" d="M374.043 803.291q.162-.049.325-.091.164-.041.33-.075.165-.033.332-.059t.335-.042q.168-.018.337-.027.169-.008.338-.009t.338.006q.168.008.337.024.168.015.335.039t.333.056.33.072.326.088.322.104q.159.055.316.119.156.064.31.135.153.071.303.149.149.079.295.164.145.086.287.178.141.093.278.193.136.099.268.205.131.106.258.218.126.112.247.231.12.118.235.242t.223.253.211.264q.102.135.198.274.095.14.184.283.088.144.17.292.081.148.155.3t.141.307.126.314.11.319.095.324.078.329.063.332q.027.166.046.334t.03.337q.011.168.013.337.003.169-.003.338-.005.169-.019.337t-.036.336-.052.333q-.03.167-.068.331-.039.165-.085.327-.046.163-.1.323t-.116.317-.131.311-.146.305-.161.297-.175.289-.188.28q-.098.137-.203.27-.104.133-.215.26-.111.128-.228.25t-.239.238q-.123.116-.251.226t-.262.214q-.133.103-.271.2-.139.097-.282.188-.142.09-.29.173-.147.083-.298.159-.15.076-.305.144-.154.068-.312.129t-.318.114q-.217.072-.438.129t-.446.1q-.224.043-.451.07t-.455.041q-.228.012-.457.01-.228-.002-.456-.02-.228-.017-.454-.049-.226-.033-.45-.08-.223-.047-.443-.109t-.436-.138q-.215-.076-.425-.166t-.414-.194-.4-.221-.384-.246-.367-.272-.349-.295-.328-.317-.307-.339-.284-.358-.26-.375-.234-.392q-.111-.2-.208-.407-.098-.207-.181-.419-.084-.213-.153-.431t-.124-.439q-.055-.222-.095-.447t-.066-.452-.035-.456q-.01-.228-.005-.456.005-.229.025-.457.02-.227.054-.453.035-.226.085-.449t.114-.442.143-.434.171-.424.198-.411q.107-.203.226-.398.119-.194.251-.381t.275-.365.299-.345.321-.325.342-.303.361-.28.379-.255q.193-.122.394-.23.202-.109.409-.204.208-.095.422-.176.213-.081.432-.148"/>
  <path fill="#536876" fill-opacity=".682" d="M911.507 650.533c.983-.05 2.008-.12 2.989-.02 1.669.17 3.815 1.326 4.714 2.774.995 1.6 1.241 3.334.79 5.161-.74 2.996-2.516 4.353-5.017 5.938-.281.025-.561.082-.842.076-2-.047-4.127-1.008-5.375-2.583-1.279-1.613-1.593-3.745-1.329-5.746.371-2.808 1.891-3.993 4.07-5.6"/>
  <path fill="#536876" fill-opacity=".678" d="M389.576 212.335c.192-.006.385-.021.577-.017 2.562.052 5.252 1.089 6.951 3.06 1.049 1.217 1.701 2.96 1.464 4.579-.411 2.805-2.132 4.003-4.345 5.525-.627.072-.493.068-1.245.085-2.184.048-4.368-.73-5.869-2.363-1.271-1.384-1.725-3.191-1.556-5.037.259-2.831 1.94-4.121 4.023-5.832"/>
  <path fill="#536876" fill-opacity=".686" d="M119.772 98.818q.146-.059.294-.111t.299-.097.304-.082.307-.067.31-.052.312-.036q.157-.015.314-.021t.314-.006.314.01q.157.008.314.024.156.016.311.04.156.024.31.055.154.032.306.071.153.039.303.085t.298.1.293.115.286.129.281.142q.138.075.272.156.135.082.265.17.131.088.256.182.126.094.248.194.121.1.237.207t.227.217q.11.112.215.229.106.117.205.239t.192.248q.094.127.181.258t.167.266.154.274.14.281q.067.143.127.288t.112.294q.053.148.098.298.045.151.083.304.038.152.068.307.031.154.053.309.023.156.038.313.015.156.022.313.008.157.007.315 0 .157-.008.314t-.024.313q-.015.157-.039.312-.023.156-.054.31t-.069.307-.085.302q-.045.151-.099.299-.053.148-.113.293t-.128.287q-.067.142-.141.281-.075.139-.156.273-.081.135-.168.266t-.181.257-.194.248-.205.237q-.106.117-.217.228t-.228.217q-.116.105-.238.205t-.248.194q-.126.093-.257.181-.131.087-.265.168-.135.081-.274.155t-.281.141-.287.128q-.146.061-.295.114-.148.053-.299.099-.152.046-.305.084t-.308.07q-.155.03-.311.054-.156.023-.314.038-.157.016-.315.024-.157.007-.315.007t-.316-.008-.315-.023-.313-.039-.312-.054q-.155-.031-.308-.07-.153-.038-.304-.084t-.3-.099q-.149-.054-.294-.115-.146-.06-.289-.128t-.282-.142q-.139-.075-.274-.156-.136-.082-.267-.17t-.258-.182-.249-.195q-.121-.1-.238-.207t-.229-.218-.217-.229-.206-.24q-.1-.122-.193-.249-.094-.127-.182-.259-.087-.131-.168-.267t-.155-.275-.141-.283-.127-.289-.113-.295-.098-.3-.083-.305q-.038-.153-.068-.308t-.053-.312-.038-.313q-.014-.157-.022-.315t-.006-.316q0-.158.009-.316.008-.157.024-.314.017-.158.04-.314.024-.156.056-.311.031-.154.07-.307.039-.154.086-.304.046-.151.1-.3.054-.148.115-.294t.13-.288q.068-.142.143-.281t.157-.274.171-.266q.088-.131.183-.258.095-.126.195-.247.101-.122.208-.238.107-.117.219-.228t.23-.216.24-.205q.123-.1.251-.193.127-.093.259-.18t.268-.168.275-.153q.14-.074.283-.14.144-.067.29-.127"/>
  <path fill="#536876" fill-opacity=".537" d="M224.54 779.407q.137-.062.276-.117t.281-.104.286-.09.29-.077q.146-.034.294-.062.147-.027.296-.048.148-.02.298-.033.149-.014.299-.02t.3-.004.3.009q.149.009.299.025.149.015.297.038t.295.053.293.067q.145.037.288.081.144.044.285.095t.279.109q.139.058.274.122.136.064.268.135t.261.148.253.16q.125.083.246.172.121.09.237.184.116.095.227.195.112.101.219.206.106.106.207.217.102.11.198.226.095.115.186.235.09.12.174.244t.162.252q.079.128.151.259.072.132.137.267t.124.273.111.278.098.284.084.288.069.292q.032.147.056.295t.041.297.027.298.012.3q.003.15-.002.3-.004.15-.016.299-.012.15-.031.299-.019.148-.046.296-.026.148-.059.294t-.074.291q-.04.144-.087.287-.048.142-.102.282t-.115.277-.128.271-.141.265q-.074.13-.154.257t-.166.25-.177.242q-.092.118-.19.232-.097.114-.2.223-.103.11-.211.214t-.221.203-.23.192q-.118.093-.239.18-.122.088-.248.169t-.256.157-.263.144q-.184.095-.373.178t-.384.152q-.194.07-.393.127t-.401.1-.407.073q-.204.03-.41.046t-.413.019q-.206.002-.413-.009-.206-.011-.411-.036-.206-.025-.409-.064-.203-.038-.403-.09t-.396-.118-.387-.143q-.192-.078-.377-.168-.186-.091-.366-.194-.179-.103-.351-.217t-.336-.24-.32-.262-.301-.283q-.146-.146-.282-.301-.136-.156-.261-.32-.126-.165-.24-.337t-.216-.352q-.103-.18-.193-.365-.09-.186-.168-.378-.077-.192-.142-.388t-.117-.396q-.051-.2-.089-.403t-.063-.409-.035-.411q-.011-.207-.008-.413.002-.207.019-.413t.047-.41.074-.407.101-.401.127-.393.153-.383q.083-.19.178-.373.096-.183.203-.36t.226-.346.249-.33q.129-.161.27-.313.14-.151.29-.294.15-.142.309-.274t.327-.253q.167-.121.342-.23t.358-.208.37-.183"/>
  <path fill="#536876" fill-opacity=".659" d="M782.976 907.461q.181-.075.367-.138.185-.062.375-.112.189-.051.382-.088.192-.038.386-.062.195-.025.39-.037.196-.011.392-.01.196.002.391.016.196.014.39.042.194.027.385.067.192.04.381.093t.373.118.365.143.355.167.342.189q.168.101.329.212.162.112.315.234t.298.254.281.273.262.291.242.308.221.324.198.337.177.35q.082.178.152.361t.128.37.103.378.078.383q.033.194.053.389t.026.39q.007.196 0 .392-.006.196-.025.391t-.052.388-.077.384-.103.378q-.057.187-.127.37t-.152.361-.176.351-.198.337q-.105.166-.22.324-.116.158-.242.308-.126.151-.261.292-.136.142-.28.274t-.298.254-.314.234-.329.213-.342.19q-.175.09-.355.168-.179.077-.364.143-.134.048-.27.089t-.274.075-.278.063-.28.049-.283.035q-.141.014-.283.021t-.285.008-.284-.006-.284-.02q-.141-.013-.282-.033t-.281-.047-.278-.06q-.138-.034-.275-.074-.136-.04-.27-.087-.135-.047-.267-.1t-.261-.113q-.129-.059-.255-.125-.127-.065-.25-.137t-.242-.149-.234-.161-.227-.172-.218-.183-.209-.192-.2-.203-.189-.212q-.092-.109-.179-.222-.087-.112-.168-.229t-.157-.237q-.076-.121-.145-.245-.07-.124-.134-.251-.063-.128-.121-.258t-.108-.263-.096-.268q-.044-.135-.082-.272t-.069-.276q-.032-.139-.056-.279-.025-.14-.042-.281t-.029-.283-.015-.284-.001-.285.012-.284.026-.283q.017-.141.04-.282.024-.14.054-.279t.067-.277.08-.273.093-.268.106-.264.119-.259.131-.252q.068-.125.143-.246t.154-.239q.081-.117.166-.231.086-.113.177-.223.092-.109.188-.213.096-.105.198-.205.101-.1.207-.195.106-.094.216-.184.111-.09.226-.174.114-.084.233-.163.118-.078.241-.151.122-.073.248-.14.125-.066.254-.127t.26-.115"/>
  <path fill="#536876" fill-opacity=".596" d="M79.38 577.245c.625-.068 1.255-.136 1.886-.138 1.817-.006 4.17 1.231 5.372 2.582q.192.215.361.449t.312.485q.144.251.26.515.116.265.204.54t.146.558.086.57.026.576-.034.576c-.275 2.23-1.784 3.658-3.394 5.044-1.994.32-4.222.115-5.885-1.167-1.297-.999-1.94-2.355-2.083-3.963-.254-2.872 1.03-4.463 2.742-6.627"/>
  <path fill="#536876" fill-opacity=".647" d="M181.55 915.044q.138-.029.277-.051t.279-.038.28-.023.282-.01q.141-.002.281.003.141.006.281.018t.28.032.278.045.275.058.273.073q.135.039.268.085t.264.099.258.111.253.124.246.136q.122.072.24.149t.232.159.223.171q.11.089.215.182.106.094.206.192.101.099.196.202.096.104.186.212.091.108.176.22t.164.228.153.237.141.244q.068.123.129.25t.117.256q.055.13.103.262.049.132.091.266.042.135.078.271t.064.274q.029.138.051.277t.037.279.023.281.01.281q.001.141-.005.282t-.018.281q-.013.14-.032.279-.019.14-.046.278-.026.139-.059.276-.033.136-.073.271-.039.136-.086.269t-.099.263q-.053.131-.112.259-.059.127-.124.252-.066.125-.137.246-.071.122-.149.239-.077.118-.16.232t-.171.223-.182.215-.193.206-.202.195q-.104.096-.212.186t-.221.175q-.112.085-.229.164-.116.079-.236.152-.12.074-.244.141t-.251.129-.256.116q-.13.055-.262.103t-.267.09q-.134.042-.271.077-.136.036-.274.064t-.276.05q-.139.022-.279.037t-.28.022-.281.009q-.14.001-.281-.004-.14-.006-.28-.019t-.279-.032-.277-.046-.275-.06q-.136-.033-.271-.072-.135-.04-.267-.086-.133-.046-.263-.099t-.258-.112q-.127-.059-.252-.124-.124-.065-.245-.137-.121-.071-.239-.148t-.231-.16-.223-.171-.214-.182q-.105-.093-.205-.191-.1-.099-.195-.202-.096-.104-.186-.211-.09-.108-.174-.22-.085-.113-.164-.229t-.152-.236q-.074-.119-.141-.243-.067-.123-.129-.25-.061-.126-.116-.255-.055-.13-.103-.261-.049-.132-.091-.266-.042-.135-.077-.271-.035-.135-.064-.273t-.051-.276q-.021-.139-.037-.279-.015-.139-.023-.28-.008-.14-.009-.28-.002-.141.004-.281.005-.141.018-.281.012-.139.032-.279.019-.139.045-.277t.059-.274.072-.272q.04-.135.086-.267.046-.133.098-.264.053-.13.111-.257.059-.128.124-.253.065-.124.136-.245t.148-.239.159-.231q.083-.114.171-.224.088-.109.181-.214t.192-.206.201-.195q.103-.096.211-.186t.219-.175q.112-.085.228-.164.116-.08.236-.153.12-.074.243-.141.123-.068.25-.129.126-.062.255-.117t.261-.104.266-.091.27-.077.273-.065"/>
  <path fill="#536876" fill-opacity=".69" d="M547.663 65.95q.124-.057.251-.106.127-.05.256-.094.129-.043.26-.08t.263-.07.267-.055.269-.043.271-.03q.135-.011.271-.017.136-.005.273-.004.136.002.272.01t.271.022q.136.014.27.035.135.021.268.048.134.028.266.061.132.034.262.074t.258.086.254.098.249.11.243.123.237.134.231.145.223.156q.11.08.216.166.105.086.207.177.101.09.198.186.098.096.19.196t.18.204q.087.105.169.213.083.109.16.22.077.113.148.23.072.115.138.234t.126.242.114.247q.055.125.103.252t.09.257.078.26q.035.132.065.265t.052.267.04.27q.016.135.026.271t.013.272.001.272-.013.272q-.009.136-.026.271-.016.136-.038.27-.023.134-.052.267t-.064.265-.077.261-.089.257-.102.253-.114.247-.125.242-.137.236-.148.228-.158.221-.17.214q-.087.105-.179.205t-.188.196-.198.187-.207.177-.215.167-.223.157-.23.146-.237.134q-.167.09-.34.168t-.351.145-.36.122-.367.097-.373.072-.377.047-.379.022-.379-.003q-.19-.008-.379-.03-.189-.02-.376-.053-.187-.034-.371-.08-.185-.045-.365-.103-.181-.058-.358-.128-.176-.07-.348-.152t-.337-.175-.325-.196-.311-.218-.296-.239q-.143-.124-.279-.257-.135-.134-.261-.276t-.242-.292-.222-.308-.201-.323-.179-.334-.156-.346-.133-.356-.108-.364q-.049-.184-.085-.37-.035-.187-.059-.376-.023-.188-.033-.378t-.009-.38.017-.379q.015-.19.042-.377.028-.188.068-.374t.092-.368.116-.362.141-.352.164-.343.186-.33.208-.318.229-.303.249-.287.267-.27.285-.251q.146-.121.3-.232.155-.111.316-.211t.329-.19.341-.167"/>
  <defs>
    <linearGradient id="b" gradientUnits="userSpaceOnUse" x1="398.232" y1="935.223" x2="396.129" y2="941.047">
      <stop offset="0" stop-color="#4A5864" stop-opacity=".667"/>
      <stop offset="1" stop-color="#4B5761" stop-opacity=".702"/>
    </linearGradient>
  </defs>
  <path fill="url(#b)" d="M395.147 932.971q.122-.062.246-.118t.251-.106.257-.093.26-.081q.132-.037.265-.067.132-.031.267-.055.134-.024.269-.041.136-.018.272-.029.136-.01.272-.014t.273-.002q.136.003.272.012t.272.026q.135.016.27.039.134.022.268.051.133.03.265.066.131.035.261.077.13.043.257.091.128.049.253.103.125.055.247.116t.241.127q.119.067.235.14.115.072.227.15t.22.162.211.172q.104.089.203.182.099.094.194.192.094.099.184.202.089.103.174.21t.163.218.152.226.142.234q.067.118.129.24t.118.246.105.252.093.256q.043.13.08.261.036.131.067.264.03.133.054.268.024.134.041.27.017.135.027.271.011.136.015.272.003.137 0 .273-.003.137-.012.273t-.026.271q-.016.136-.039.27t-.053.268q-.029.133-.065.264-.036.132-.079.262-.042.129-.091.257-.049.127-.104.252t-.116.247-.128.241-.14.234-.151.227-.162.22q-.083.107-.172.211-.089.103-.183.202t-.192.194-.202.183-.211.174q-.107.084-.218.163-.112.078-.227.151-.115.074-.234.141-.118.068-.24.129-.121.061-.246.117-.124.055-.251.104-.127.05-.256.093t-.26.079q-.131.037-.264.067t-.267.053-.269.041-.271.027-.271.014-.272.001-.272-.013-.271-.026-.269-.039-.267-.053-.265-.065q-.131-.036-.26-.078t-.257-.091-.251-.104q-.125-.055-.247-.115-.121-.061-.24-.128t-.234-.139-.226-.151-.22-.161q-.107-.084-.21-.172-.104-.089-.203-.182-.098-.094-.193-.192-.094-.098-.183-.201t-.173-.21-.163-.218-.152-.225-.141-.233-.129-.24q-.062-.121-.117-.246-.056-.124-.105-.251-.05-.127-.093-.256t-.08-.259q-.037-.132-.067-.264-.03-.133-.054-.267t-.041-.269-.028-.27q-.01-.136-.014-.272t-.001-.272.012-.272.025-.271.039-.269.052-.267.065-.265q.036-.131.078-.26.042-.13.09-.257.049-.127.103-.252.055-.124.115-.246t.128-.241q.066-.119.138-.234t.15-.227.161-.219.172-.211.182-.203.191-.193q.098-.095.201-.184.102-.089.209-.174t.218-.163.225-.152.233-.142.239-.129"/>
  <path fill="#536876" fill-opacity=".604" d="M917.63 308.786q.122-.06.246-.113.125-.054.252-.101t.256-.089.26-.076.263-.063.266-.05.269-.037q.134-.015.27-.023.135-.009.27-.011.136-.002.271.003.136.005.271.016t.269.029.268.043q.133.024.265.055t.262.068q.13.038.258.081.129.044.255.094t.249.106.244.118.237.13q.118.068.231.142t.224.152q.11.08.216.164t.208.174.199.183q.098.095.19.194.093.099.18.202.088.103.17.211.083.107.16.219.077.111.148.226.072.116.137.234t.126.24.114.246.101.251.089.256.077.26.064.263.05.266.038.269q.015.134.024.269.009.136.012.271.002.136-.003.271-.004.135-.015.27t-.029.27-.041.268q-.025.133-.055.265-.031.132-.068.262t-.081.259q-.043.128-.093.254-.049.126-.105.25-.056.123-.118.244-.062.12-.129.238-.068.117-.141.231-.074.114-.152.224-.079.111-.163.217t-.173.208q-.09.102-.184.2-.094.097-.193.19-.098.093-.202.18-.103.088-.21.171-.108.083-.219.16t-.226.149-.233.138-.24.126-.246.115q-.125.054-.252.102t-.257.09-.26.077-.264.064-.267.052-.269.038-.27.025q-.136.009-.272.011t-.272-.002-.271-.015-.27-.029-.269-.042-.266-.054-.263-.068-.259-.081q-.129-.044-.255-.094-.127-.049-.251-.105-.123-.057-.244-.119t-.239-.129-.232-.142-.225-.153q-.11-.079-.217-.163-.106-.085-.208-.174-.102-.09-.2-.184-.098-.095-.191-.194t-.181-.203-.17-.211-.16-.22-.149-.227q-.072-.116-.138-.234t-.126-.241-.114-.247-.102-.252-.089-.256q-.042-.13-.077-.261t-.063-.264-.051-.267-.037-.269q-.016-.135-.025-.271-.008-.135-.01-.271-.003-.136.002-.272t.016-.271.029-.27.043-.269q.024-.133.055-.266.031-.132.069-.262.037-.131.081-.26.044-.128.094-.255.05-.126.106-.25.057-.123.119-.244t.13-.238.143-.232q.073-.114.153-.224.079-.111.164-.217.084-.106.174-.208t.185-.2.194-.19.203-.18.212-.17.22-.16.228-.148.234-.138q.119-.065.241-.125"/>
  <path fill="#536876" fill-opacity=".584" d="M88.092 279.873q.13-.012.259-.018.13-.006.26-.006t.259.006.258.019q.13.012.258.031.129.018.256.043t.254.055.25.067q.125.036.248.078.122.043.243.091.12.048.239.101.118.054.233.113t.228.124.222.135.215.145.208.155.201.164.193.174.184.183.175.191.166.199.157.207.146.214.137.221.125.227.115.233.103.238q.05.12.093.242.043.123.08.247t.07.25q.03.126.056.253.026.128.045.256.02.128.033.257t.02.259.009.259q.001.13-.004.26-.005.129-.016.259-.011.129-.029.258-.017.128-.04.256-.024.128-.053.254-.03.126-.065.251t-.076.248-.088.244-.1.24-.11.235-.122.229q-.064.113-.133.223-.068.11-.142.216-.074.107-.153.21-.08.103-.163.202-.084.099-.172.194-.088.096-.181.186-.093.091-.19.177-.097.087-.197.168-.101.082-.206.159t-.213.148-.22.139q-.11.066-.225.127-.114.061-.232.117-.117.056-.237.106t-.241.094q-.122.045-.246.083t-.25.072q-.125.032-.252.059-.182.038-.366.064-.185.026-.37.039-.186.013-.372.014t-.371-.011-.37-.037-.367-.061-.362-.086-.355-.11q-.175-.062-.347-.135-.17-.073-.336-.157-.166-.085-.326-.18t-.312-.201q-.153-.107-.299-.223-.145-.116-.282-.242-.137-.125-.265-.26t-.247-.278-.228-.294-.207-.309-.186-.322-.163-.333q-.077-.17-.141-.345-.065-.174-.117-.353-.052-.178-.093-.36-.04-.181-.068-.365t-.043-.369-.018-.372q-.003-.186.007-.371.01-.186.032-.371.022-.184.057-.367t.082-.363q.047-.179.107-.356.059-.176.13-.348t.154-.339.176-.327.198-.315.218-.3q.115-.147.24-.285.123-.139.257-.269.133-.129.275-.25.142-.12.291-.231.15-.11.306-.21.157-.101.32-.19.164-.089.332-.167.17-.078.343-.145t.352-.121q.177-.054.359-.096.18-.043.364-.073t.37-.047"/>
  <path fill="#536876" fill-opacity=".702" d="m208.225 59.508.478-.029c2.764-.15 5.18.02 7.273 2.056.977.95 1.496 2.102 1.373 3.489-.197 2.217-1.48 3.378-3.024 4.78-1.677.165-3.261.193-4.842-.483-1.471-.629-2.566-1.751-3.023-3.316-.684-2.342.491-4.614 1.765-6.497"/>
  <path fill="#536876" fill-opacity=".663" d="M256.791 853.551c1.712.04 3.369.04 4.751 1.237 1.194 1.035 1.728 2.399 1.624 3.961-.178 2.658-1.618 4.151-3.51 5.849-2.348-.464-4.244-1.14-5.663-3.178-.896-1.287-1.376-2.72-.912-4.287.589-1.992 2.002-2.723 3.71-3.582"/>
  <path fill="#536876" fill-opacity=".588" d="M878.598 570.072q.165-.167.343-.319.179-.153.37-.289.192-.136.394-.255t.414-.22.432-.183.446-.145.456-.106.465-.066q.233-.023.468-.025t.469.015q.234.018.465.057.232.038.459.096.228.058.449.136.222.077.436.174t.418.211q.205.115.399.247t.376.281.35.312.322.341.291.368.257.392q.121.201.223.412.103.212.186.431.084.219.148.445.065.226.109.456.045.231.069.464.025.234.029.468t-.013.469q-.016.234-.053.466-.036.232-.093.46-.056.227-.133.45-.076.221-.171.436c-2.297.164-5.506-.175-7.267-1.811-1.614-1.5-1.361-2.101-1.513-4.168"/>
  <path fill="#536876" fill-opacity=".643" d="M878.598 570.072c.152 2.067-.101 2.668 1.513 4.168 1.761 1.636 4.97 1.975 7.267 1.811q-.08.18-.173.354t-.198.34-.222.325-.246.308q-.128.15-.267.29t-.288.269-.306.247-.324.225q-.166.106-.339.2t-.353.175-.365.148-.374.122q-.19.054-.383.094t-.388.066-.392.037-.394.009-.393-.02-.391-.048q-.194-.032-.386-.077-.192-.046-.38-.105-.187-.06-.371-.132-.183-.073-.36-.159t-.348-.185-.333-.21-.317-.233-.299-.256-.28-.277-.259-.297-.237-.314q-.112-.162-.213-.331-.1-.17-.188-.346-.088-.177-.163-.359t-.136-.37-.109-.378q-.047-.191-.081-.386-.033-.194-.052-.39t-.024-.393.004-.394.034-.392.062-.389.09-.384.118-.375q.066-.186.145-.367.079-.18.171-.354.092-.175.197-.342.104-.167.221-.326.116-.159.244-.309t.266-.29"/>
</svg>
